<svg class="svg-icon" style="width: 1em; height: 1em;vertical-align: middle;fill: currentColor;overflow: hidden;" viewBox="0 0 1024 1024" version="1.1" xmlns="http://www.w3.org/2000/svg"><path d="M518.187171 547.401781a32.331456 32.331456 0 1 1 32.284935-32.284936 32.564056 32.564056 0 0 1-32.284935 32.284936z m0-50.660367a18.375432 18.375432 0 1 0 18.328911 18.608032 18.608032 18.608032 0 0 0-18.328911-18.608032zM613.134654 365.554788H423.332728a6.978012 6.978012 0 0 1-6.978012-6.978012v-23.26004a6.978012 6.978012 0 0 1 6.978012-6.978012h189.801926a6.978012 6.978012 0 0 1 6.978012 6.978012v23.26004a6.978012 6.978012 0 0 1-6.978012 6.978012z m-182.963475-13.956024h175.985463v-9.304016H430.171179zM613.134654 270.839906H423.332728a6.978012 6.978012 0 0 1-6.978012-6.978012v-23.26004a6.978012 6.978012 0 0 1 6.978012-6.978012h189.801926a6.978012 6.978012 0 0 1 6.978012 6.978012v23.26004a6.978012 6.978012 0 0 1-6.978012 6.978012z m-182.963475-13.956024h175.985463v-9.304016H430.171179z" fill="#363636" /><path d="M644.023987 247.440305H392.303834a6.978012 6.978012 0 0 1-6.978012-6.978012V169.193531a6.978012 6.978012 0 0 1 6.978012-6.978012h251.720153a6.978012 6.978012 0 0 1 6.978012 6.978012v71.268762a6.978012 6.978012 0 0 1-6.978012 6.978012z m-244.742141-13.956024h237.764129V176.171543H399.281846zM644.023987 342.155188H392.303834a6.978012 6.978012 0 0 1-6.978012-6.978012V263.861894a6.978012 6.978012 0 0 1 6.978012-6.978012h251.720153a6.978012 6.978012 0 0 1 6.978012 6.978012v71.315282a6.978012 6.978012 0 0 1-6.978012 6.978012z m-244.742141-13.956024h237.764129V270.839906H399.281846zM644.023987 436.870071H392.303834a6.978012 6.978012 0 0 1-6.978012-6.978012V358.576776a6.978012 6.978012 0 0 1 6.978012-6.978012h251.720153a6.978012 6.978012 0 0 1 6.978012 6.978012v71.315283a6.978012 6.978012 0 0 1-6.978012 6.978012z m-244.742141-13.956024h237.764129V365.554788H399.281846z" fill="#363636" /><path d="M412.633109 244.6491a6.978012 6.978012 0 0 1-6.978012-6.978012v-14.700345a6.978012 6.978012 0 1 1 13.956024 0v14.700345a6.978012 6.978012 0 0 1-6.978012 6.978012zM442.778121 244.6491a6.978012 6.978012 0 0 1-6.978012-6.978012v-14.700345a6.978012 6.978012 0 0 1 13.956024 0v14.700345a6.978012 6.978012 0 0 1-6.978012 6.978012zM472.923133 244.6491a6.978012 6.978012 0 0 1-6.978012-6.978012v-14.700345a6.978012 6.978012 0 0 1 13.956024 0v14.700345a6.978012 6.978012 0 0 1-6.978012 6.978012zM503.068145 244.6491a6.978012 6.978012 0 0 1-6.978012-6.978012v-14.700345a6.978012 6.978012 0 1 1 13.956024 0v14.700345a6.978012 6.978012 0 0 1-6.978012 6.978012zM533.259677 244.6491a6.978012 6.978012 0 0 1-6.978012-6.978012v-14.700345a6.978012 6.978012 0 0 1 13.956024 0v14.700345a6.978012 6.978012 0 0 1-6.978012 6.978012zM563.404688 244.6491a6.978012 6.978012 0 0 1-6.978012-6.978012v-14.700345a6.978012 6.978012 0 1 1 13.956024 0v14.700345a6.978012 6.978012 0 0 1-6.978012 6.978012zM593.5497 244.6491a6.978012 6.978012 0 0 1-6.978012-6.978012v-14.700345a6.978012 6.978012 0 0 1 13.956024 0v14.700345a6.978012 6.978012 0 0 1-6.978012 6.978012zM623.694712 244.6491a6.978012 6.978012 0 0 1-6.978012-6.978012v-14.700345a6.978012 6.978012 0 0 1 13.956024 0v14.700345a6.978012 6.978012 0 0 1-6.978012 6.978012zM412.633109 339.596584a6.978012 6.978012 0 0 1-6.978012-6.978012v-14.653825a6.978012 6.978012 0 0 1 13.956024 0v14.700345A6.978012 6.978012 0 0 1 412.633109 339.596584zM442.778121 339.596584a6.978012 6.978012 0 0 1-6.978012-6.978012v-14.653825a6.978012 6.978012 0 0 1 13.956024 0v14.700345a6.978012 6.978012 0 0 1-6.978012 6.931492zM472.923133 339.596584a6.978012 6.978012 0 0 1-6.978012-6.978012v-14.653825a6.978012 6.978012 0 0 1 13.956024 0v14.700345a6.978012 6.978012 0 0 1-6.978012 6.931492zM503.068145 339.596584a6.978012 6.978012 0 0 1-6.978012-6.978012v-14.653825a6.978012 6.978012 0 0 1 13.956024 0v14.700345a6.978012 6.978012 0 0 1-6.978012 6.931492zM533.259677 339.596584a6.978012 6.978012 0 0 1-6.978012-6.978012v-14.653825a6.978012 6.978012 0 0 1 13.956024 0v14.700345a6.978012 6.978012 0 0 1-6.978012 6.931492zM563.404688 339.596584a6.978012 6.978012 0 0 1-6.978012-6.978012v-14.653825a6.978012 6.978012 0 0 1 13.956024 0v14.700345a6.978012 6.978012 0 0 1-6.978012 6.931492zM593.5497 339.596584a6.978012 6.978012 0 0 1-6.978012-6.978012v-14.653825a6.978012 6.978012 0 0 1 13.956024 0v14.700345a6.978012 6.978012 0 0 1-6.978012 6.931492zM623.694712 339.596584a6.978012 6.978012 0 0 1-6.978012-6.978012v-14.653825a6.978012 6.978012 0 0 1 13.956024 0v14.700345a6.978012 6.978012 0 0 1-6.978012 6.931492zM412.633109 434.637107a6.978012 6.978012 0 0 1-6.978012-6.978012v-14.700345a6.978012 6.978012 0 0 1 13.956024 0v14.700345a6.978012 6.978012 0 0 1-6.978012 6.978012zM442.778121 434.637107a6.978012 6.978012 0 0 1-6.978012-6.978012v-14.700345a6.978012 6.978012 0 1 1 13.956024 0v14.700345a6.978012 6.978012 0 0 1-6.978012 6.978012zM472.923133 434.637107a6.978012 6.978012 0 0 1-6.978012-6.978012v-14.700345a6.978012 6.978012 0 0 1 13.956024 0v14.700345a6.978012 6.978012 0 0 1-6.978012 6.978012zM503.068145 434.637107a6.978012 6.978012 0 0 1-6.978012-6.978012v-14.700345a6.978012 6.978012 0 0 1 13.956024 0v14.700345a6.978012 6.978012 0 0 1-6.978012 6.978012zM533.259677 434.637107a6.978012 6.978012 0 0 1-6.978012-6.978012v-14.700345a6.978012 6.978012 0 1 1 13.956024 0v14.700345a6.978012 6.978012 0 0 1-6.978012 6.978012zM563.404688 434.637107a6.978012 6.978012 0 0 1-6.978012-6.978012v-14.700345a6.978012 6.978012 0 0 1 13.956024 0v14.700345a6.978012 6.978012 0 0 1-6.978012 6.978012zM593.5497 434.637107a6.978012 6.978012 0 0 1-6.978012-6.978012v-14.700345a6.978012 6.978012 0 0 1 13.956024 0v14.700345a6.978012 6.978012 0 0 1-6.978012 6.978012zM623.694712 434.637107a6.978012 6.978012 0 0 1-6.978012-6.978012v-14.700345a6.978012 6.978012 0 1 1 13.956024 0v14.700345a6.978012 6.978012 0 0 1-6.978012 6.978012zM518.187171 496.741414a6.978012 6.978012 0 0 1-6.978012-6.978012V429.892059a6.978012 6.978012 0 0 1 13.956024 0v59.871343a6.978012 6.978012 0 0 1-6.978012 6.978012z" fill="#363636" /><path d="M825.359259 610.99473H209.34036a28.795929 28.795929 0 0 1-28.79593-28.795929V110.206069A28.795929 28.795929 0 0 1 209.34036 81.41014h616.018899a28.795929 28.795929 0 0 1 28.795929 28.795929v471.992732a28.795929 28.795929 0 0 1-28.795929 28.795929zM209.34036 95.366164a14.839906 14.839906 0 0 0-14.839906 14.839905v471.992732a14.839906 14.839906 0 0 0 14.839906 14.839905h616.018899a14.839906 14.839906 0 0 0 14.839905-14.839905V110.206069a14.839906 14.839906 0 0 0-14.839905-14.839905zM803.541341 567.544975H230.925677a6.978012 6.978012 0 0 1-6.978012-6.978012V131.977467a6.978012 6.978012 0 0 1 6.978012-6.978012h572.615664a6.978012 6.978012 0 0 1 6.978012 6.978012v428.403416a6.978012 6.978012 0 0 1-6.978012 7.164092z m-565.637652-13.956024h558.65964V138.955479H237.903689z" fill="#363636" /><path d="M568.847538 691.753589H462.874796a6.978012 6.978012 0 0 1-6.978012-6.978012v-80.758859a7.024532 7.024532 0 0 1 6.978012-6.978012h105.972742a6.978012 6.978012 0 0 1 6.978012 6.978012v80.758859a6.978012 6.978012 0 0 1-6.978012 6.978012z m-98.99473-13.956024h92.016718v-66.802835H469.852808z" fill="#363636" /><path d="M685.426858 747.484645h-339.596584a6.978012 6.978012 0 0 1-6.978012-6.978012 62.802108 62.802108 0 0 1 62.848628-62.709068h227.948392a62.802108 62.802108 0 0 1 62.755588 62.709068 6.978012 6.978012 0 0 1-6.978012 6.978012z m-331.96729-13.956024h324.477557a48.846084 48.846084 0 0 0-48.287843-41.868072h-227.948392a48.799564 48.799564 0 0 0-48.148282 41.868072z" fill="#363636" /><path d="M381.464656 747.484645a6.978012 6.978012 0 0 1-6.978012-6.978012v-19.771034a6.978012 6.978012 0 0 1 13.956024 0v19.771034a6.978012 6.978012 0 0 1-6.978012 6.978012zM426.123932 747.484645a6.978012 6.978012 0 0 1-6.978012-6.978012v-19.771034a6.978012 6.978012 0 0 1 13.956024 0v19.771034a6.978012 6.978012 0 0 1-6.978012 6.978012zM470.922769 747.484645a6.978012 6.978012 0 0 1-6.978012-6.978012v-19.771034a6.978012 6.978012 0 0 1 13.956024 0v19.771034a6.978012 6.978012 0 0 1-6.978012 6.978012zM515.675086 747.484645a6.978012 6.978012 0 0 1-6.978012-6.978012v-19.771034a6.978012 6.978012 0 0 1 13.956024 0v19.771034a6.978012 6.978012 0 0 1-6.978012 6.978012zM560.473923 747.484645a6.978012 6.978012 0 0 1-6.978012-6.978012v-19.771034a6.978012 6.978012 0 0 1 13.956024 0v19.771034a6.978012 6.978012 0 0 1-6.978012 6.978012zM605.22624 747.484645a6.978012 6.978012 0 0 1-6.978012-6.978012v-19.771034a6.978012 6.978012 0 0 1 13.956024 0v19.771034a6.978012 6.978012 0 0 1-6.978012 6.978012zM650.025077 747.484645a6.978012 6.978012 0 0 1-6.978012-6.978012v-19.771034a6.978012 6.978012 0 0 1 13.956024 0v19.771034a6.978012 6.978012 0 0 1-6.978012 6.978012zM760.324187 247.440305h-71.315283a6.978012 6.978012 0 0 1-6.978012-6.978012V169.193531a6.978012 6.978012 0 0 1 6.978012-6.978012h71.315283a6.978012 6.978012 0 0 1 6.978012 6.978012v71.268762a6.978012 6.978012 0 0 1-6.978012 6.978012z m-64.337271-13.956024h57.359259V176.171543h-57.359259zM760.324187 286.656733h-73.780847a6.978012 6.978012 0 0 1 0-13.956024h73.780847a6.978012 6.978012 0 0 1 0 13.956024zM760.324187 328.617845h-73.780847a6.978012 6.978012 0 0 1 0-13.956024h73.780847a6.978012 6.978012 0 0 1 0 13.956024zM760.324187 370.578957h-73.780847a6.978012 6.978012 0 0 1 0-13.956024h73.780847a6.978012 6.978012 0 0 1 0 13.956024zM760.324187 412.540069h-73.780847a6.978012 6.978012 0 0 1 0-13.956024h73.780847a6.978012 6.978012 0 0 1 0 13.956024zM760.324187 454.501181h-73.780847a6.978012 6.978012 0 0 1 0-13.956024h73.780847a6.978012 6.978012 0 0 1 0 13.956024zM760.324187 496.462293h-73.780847a6.978012 6.978012 0 0 1 0-13.956024h73.780847a6.978012 6.978012 0 0 1 0 13.956024zM760.324187 538.423405h-73.780847a6.978012 6.978012 0 0 1 0-13.956024h73.780847a6.978012 6.978012 0 0 1 0 13.956024zM350.714883 241.904416H279.3996a6.978012 6.978012 0 0 1-6.978012-6.978012V163.611121a6.978012 6.978012 0 0 1 6.978012-6.978012h71.315283a6.978012 6.978012 0 0 1 6.978012 6.978012V234.926404a6.978012 6.978012 0 0 1-6.978012 6.978012z m-64.337271-13.956024h57.359259V170.589133H286.377612zM350.714883 281.074323H276.934036a6.978012 6.978012 0 0 1 0-13.956024h73.780847a6.978012 6.978012 0 0 1 0 13.956024zM350.714883 323.081955H276.934036a6.978012 6.978012 0 0 1 0-13.956024h73.780847a6.978012 6.978012 0 0 1 0 13.956024zM350.714883 365.043067H276.934036a6.978012 6.978012 0 0 1 0-13.956024h73.780847a6.978012 6.978012 0 1 1 0 13.956024zM350.714883 407.00418H276.934036a6.978012 6.978012 0 1 1 0-13.956024h73.780847a6.978012 6.978012 0 0 1 0 13.956024zM350.714883 448.965292H276.934036a6.978012 6.978012 0 0 1 0-13.956024h73.780847a6.978012 6.978012 0 0 1 0 13.956024zM350.714883 490.926404H276.934036a6.978012 6.978012 0 0 1 0-13.956024h73.780847a6.978012 6.978012 0 1 1 0 13.956024zM350.714883 532.887516H276.934036a6.978012 6.978012 0 1 1 0-13.956024h73.780847a6.978012 6.978012 0 0 1 0 13.956024zM110.76431 924.260949v2.000363l-0.27912 0.651281a2.977285 2.977285 0 0 1-0.558241 0.697801 13.956024 13.956024 0 0 1-1.721243 1.256042 19.259313 19.259313 0 0 1-3.256406 1.628203 25.399964 25.399964 0 0 1-4.652008 1.349083 25.632564 25.632564 0 0 1-5.535889 0.558241 23.864801 23.864801 0 0 1-9.304016-1.721243 18.608032 18.608032 0 0 1-7.071052-4.931129 23.26004 23.26004 0 0 1-4.652008-8.280574 41.309831 41.309831 0 0 1 0-23.26004 25.074323 25.074323 0 0 1 4.652008-8.745775 20.654916 20.654916 0 0 1 7.350172-5.442849 24.376522 24.376522 0 0 1 13.956024-1.488643 23.818281 23.818281 0 0 1 4.000727 1.116482 18.096311 18.096311 0 0 1 3.302926 1.488642 13.211703 13.211703 0 0 1 1.953843 1.442123 3.675086 3.675086 0 0 1 0.744322 0.837361 2.698165 2.698165 0 0 1 0.2326 0.651281 4.652008 4.652008 0 0 1 0 0.930402 10.513538 10.513538 0 0 1 0 1.256042 6.140651 6.140651 0 0 1 0 1.395603 3.023805 3.023805 0 0 1 0 0.976921 1.302562 1.302562 0 0 1-0.372161 0.558241 0.744321 0.744321 0 0 1-0.558241 0 3.349446 3.349446 0 0 1-1.628202-0.790841 23.585681 23.585681 0 0 0-2.651645-1.767763 21.213156 21.213156 0 0 0-3.954207-1.767763 17.72415 17.72415 0 0 0-5.582409-0.790842 14.607305 14.607305 0 0 0-6.419771 1.395603 13.956024 13.956024 0 0 0-4.977649 4.186807 20.329275 20.329275 0 0 0-3.163365 6.698892 31.261494 31.261494 0 0 0-1.163002 9.024895 32.005815 32.005815 0 0 0 1.116481 8.885335 17.817191 17.817191 0 0 0 3.116846 6.466291 12.606942 12.606942 0 0 0 5.024168 3.954207 16.095948 16.095948 0 0 0 6.698892 1.302563 18.142831 18.142831 0 0 0 5.53589-0.744322 20.654916 20.654916 0 0 0 4.047246-1.767763 27.912048 27.912048 0 0 0 2.698165-1.721243 3.535526 3.535526 0 0 1 1.721243-0.790841 0.790841 0.790841 0 0 1 0.465201 0 0.697801 0.697801 0 0 1 0.32564 0.465201 4.047247 4.047247 0 0 1 0 0.976921 12.886062 12.886062 0 0 1 0.558241 1.860804zM163.750681 904.629475a40.70507 40.70507 0 0 1-1.535162 11.63002 24.748683 24.748683 0 0 1-4.652008 8.745775 19.538434 19.538434 0 0 1-7.582773 5.582409 26.656006 26.656006 0 0 1-10.606578 1.953844 27.912048 27.912048 0 0 1-10.327458-1.767763 18.608032 18.608032 0 0 1-7.071052-5.024169 21.771397 21.771397 0 0 1-4.233328-8.420134 43.403235 43.403235 0 0 1-1.395602-11.5835 39.495548 39.495548 0 0 1 1.535163-11.39742 23.49264 23.49264 0 0 1 4.652008-8.699255 20.143195 20.143195 0 0 1 7.536253-5.535889 26.656006 26.656006 0 0 1 10.606578-1.953844 27.539887 27.539887 0 0 1 10.234417 1.767763 18.049791 18.049791 0 0 1 7.257133 4.977649 21.724877 21.724877 0 0 1 4.279847 8.327094 40.61203 40.61203 0 0 1 1.302562 11.39742z m-7.489732 0.511721a39.402508 39.402508 0 0 0-0.790842-8.373615 18.608032 18.608032 0 0 0-2.651644-6.698891 12.513902 12.513902 0 0 0-4.977649-4.652008 16.468108 16.468108 0 0 0-7.675813-1.581683 15.351626 15.351626 0 0 0-7.675813 1.721243 13.956024 13.956024 0 0 0-5.070689 4.652008 18.887152 18.887152 0 0 0-2.791205 6.698892 37.774305 37.774305 0 0 0-0.837361 8.047973 44.798837 44.798837 0 0 0 0.790841 8.606215 19.724514 19.724514 0 0 0 2.605125 6.791932 12.932582 12.932582 0 0 0 4.931128 4.419407 17.49155 17.49155 0 0 0 7.768853 1.581683 16.375068 16.375068 0 0 0 7.768854-1.721243 14.328185 14.328185 0 0 0 5.070688-4.652008 19.677994 19.677994 0 0 0 2.744685-6.791931 38.053425 38.053425 0 0 0 0.790842-8.047974zM232.6004 930.68072a1.302562 1.302562 0 0 1 0 0.604761 1.209522 1.209522 0 0 1-0.604761 0.37216 4.652008 4.652008 0 0 1-1.069962 0 15.119026 15.119026 0 0 1-3.349446 0 5.163729 5.163729 0 0 1-1.116482 0 1.069962 1.069962 0 0 1-0.558241-0.37216 0.930402 0.930402 0 0 1 0-0.604761v-46.14792l-18.608032 46.52008a1.674723 1.674723 0 0 1-0.32564 0.465201 1.953843 1.953843 0 0 1-0.697801 0.372161h-3.907687l-1.023442-0.232601a1.907323 1.907323 0 0 1-0.604761-0.37216 1.302562 1.302562 0 0 1-0.325641-0.418681l-17.86371-46.52008v46.147919a1.302562 1.302562 0 0 1 0 0.604761 1.488643 1.488643 0 0 1-0.604761 0.372161h-1.069962a9.583136 9.583136 0 0 1-1.767763 0 9.024896 9.024896 0 0 1-1.674723 0 4.652008 4.652008 0 0 1-1.069962 0 1.069962 1.069962 0 0 1-0.558241-0.372161 1.302562 1.302562 0 0 1 0-0.604761v-48.520443a2.884245 2.884245 0 0 1 2.977285-3.209886h4.326368a11.5835 11.5835 0 0 1 2.326004 0 6.512811 6.512811 0 0 1 1.721243 0.790842 4.372888 4.372888 0 0 1 1.256042 1.349082 12.839542 12.839542 0 0 1 0.883881 1.953843l15.119026 38.332546 15.770307-38.239505a10.932219 10.932219 0 0 1 0.976922-2.093404 4.884608 4.884608 0 0 1 1.209522-1.349082 3.395966 3.395966 0 0 1 0.930402-0.279121 7.536253 7.536253 0 0 1 1.860803 0h4.652008a3.489006 3.489006 0 0 1 1.209522 0 2.605124 2.605124 0 0 1 0.930402 0.558241 2.558604 2.558604 0 0 1 0.651281 1.023442 3.163365 3.163365 0 0 1 0.27912 1.442122zM279.12048 894.302017a18.608032 18.608032 0 0 1-1.302563 7.164092 15.025986 15.025986 0 0 1-3.768126 5.44285 16.654189 16.654189 0 0 1-5.95457 3.489006 26.702526 26.702526 0 0 1-8.466655 1.209522h-6.00109v19.073233a1.302562 1.302562 0 0 1 0 0.604761 1.674723 1.674723 0 0 1-0.558241 0.37216h-1.069962a9.304016 9.304016 0 0 1-1.721243 0 8.559695 8.559695 0 0 1-1.674723 0 5.163729 5.163729 0 0 1-1.116482 0 1.069962 1.069962 0 0 1-0.558241-0.37216 1.302562 1.302562 0 0 1 0-0.604761v-48.892604a2.744685 2.744685 0 0 1 2.791205-3.023806h14.095584c1.069962 0 2.279484 0.325641 3.721607 0.604761a16.282028 16.282028 0 0 1 4.372887 1.767763 14.886426 14.886426 0 0 1 3.814647 3.163366 13.956024 13.956024 0 0 1 2.372524 4.372887 17.21243 17.21243 0 0 1 1.023442 5.62893z m-7.396693 0.558241a11.164819 11.164819 0 0 0-1.209522-5.396329 8.838815 8.838815 0 0 0-2.977285-3.256406 10.280938 10.280938 0 0 0-3.721607-1.349082 24.888243 24.888243 0 0 0-3.675086-0.279121h-6.512811v21.259677h6.326731a14.421225 14.421225 0 0 0 5.303289-0.837362 9.769217 9.769217 0 0 0 3.535526-2.232963 9.676177 9.676177 0 0 0 2.186444-3.489006 12.420861 12.420861 0 0 0 0.744321-4.419408zM329.734327 912.165728a25.027803 25.027803 0 0 1-1.395603 8.652735 17.119389 17.119389 0 0 1-10.420498 10.373977 25.818644 25.818644 0 0 1-8.559694 1.349083 24.283482 24.283482 0 0 1-8.001454-1.256042 17.44503 17.44503 0 0 1-6.187171-3.768127 16.282028 16.282028 0 0 1-3.954206-6.18717 24.562602 24.562602 0 0 1-1.395603-8.606215v-32.889697a0.976922 0.976922 0 0 1 0-0.558241 1.163002 1.163002 0 0 1 0.604761-0.41868h5.53589a0.883882 0.883882 0 0 1 0.558241 0.41868 0.976922 0.976922 0 0 1 0 0.558241V911.793567a20.840996 20.840996 0 0 0 0.930401 6.466291 11.86262 11.86262 0 0 0 2.605125 4.652008 10.932219 10.932219 0 0 0 4.093767 2.744685 17.072869 17.072869 0 0 0 10.839178 0 10.513538 10.513538 0 0 0 4.047247-2.698165 12.374341 12.374341 0 0 0 2.558605-4.652008 20.747956 20.747956 0 0 0 0.883881-6.23369v-32.564056a0.976922 0.976922 0 0 1 0-0.558241 1.163002 1.163002 0 0 1 0.604761-0.418681h5.48937a1.069962 1.069962 0 0 1 0.558241 0.418681 0.744321 0.744321 0 0 1 0 0.558241zM376.812648 881.788116a5.95457 5.95457 0 0 1 0 1.349082 3.349446 3.349446 0 0 1 0 0.930401 1.256042 1.256042 0 0 1-0.465201 0.511721 1.302562 1.302562 0 0 1-0.604761 0h-14.886426v45.915319a0.930402 0.930402 0 0 1 0 0.604761 1.069962 1.069962 0 0 1-0.558241 0.372161h-1.069962a9.304016 9.304016 0 0 1-1.721243 0 9.024896 9.024896 0 0 1-1.674722 0 5.163729 5.163729 0 0 1-1.116482 0 1.069962 1.069962 0 0 1-0.558241-0.372161 1.302562 1.302562 0 0 1 0-0.604761v-45.915319H338.666182a1.302562 1.302562 0 0 1-0.604761 0 0.930402 0.930402 0 0 1-0.418681-0.511721 5.76849 5.76849 0 0 1-0.27912-0.930401 9.815737 9.815737 0 0 1 0-2.698165 6.605851 6.605851 0 0 1 0.27912-0.976921 1.116482 1.116482 0 0 1 1.023442-0.697802h36.843903a0.930402 0.930402 0 0 1 0.604761 0 1.256042 1.256042 0 0 1 0.465201 0.511721 3.768126 3.768126 0 0 1 0 0.976922 5.95457 5.95457 0 0 1 0.232601 1.535163zM414.028712 928.866436a9.908777 9.908777 0 0 1 0 1.256043 2.419044 2.419044 0 0 1-0.279121 0.930401 2.930765 2.930765 0 0 1-0.465201 0.558241 1.442122 1.442122 0 0 1-0.604761 0h-25.493004a2.884245 2.884245 0 0 1-1.767763-0.604761 2.744685 2.744685 0 0 1-0.837361-2.232964v-47.124841a2.605124 2.605124 0 0 1 0.837361-2.232964 2.977285 2.977285 0 0 1 1.767763-0.651281h25.167364a0.790841 0.790841 0 0 1 0.558241 0 1.256042 1.256042 0 0 1 0.4652 0.511721 3.861167 3.861167 0 0 1 0 0.930402 5.72197 5.72197 0 0 1 0 1.349082 5.303289 5.303289 0 0 1 0 1.302562 3.442486 3.442486 0 0 1 0 0.883882 1.256042 1.256042 0 0 1-0.4652 0.511721 0.790841 0.790841 0 0 1-0.558241 0h-20.747956v16.607668H409.376704a1.302562 1.302562 0 0 1 0.604761 0 2.419044 2.419044 0 0 1 0.4652 0.511721 3.349446 3.349446 0 0 1 0 0.930402 5.95457 5.95457 0 0 1 0 1.349082 5.303289 5.303289 0 0 1 0 1.256042 3.442486 3.442486 0 0 1 0 0.883882 1.488643 1.488643 0 0 1-0.4652 0.465201 1.302562 1.302562 0 0 1-0.604761 0h-17.770671V925.749591h21.027076a1.023442 1.023442 0 0 1 0.604761 0 1.674723 1.674723 0 0 1 0.465201 0.511721 2.186444 2.186444 0 0 1 0.279121 0.883882 10.978739 10.978739 0 0 1 0.04652 1.721242zM460.874432 930.68072a1.302562 1.302562 0 0 1 0 0.604761 1.116482 1.116482 0 0 1-0.511721 0.37216 3.256406 3.256406 0 0 1-1.163002 0.279121h-3.721606a3.256406 3.256406 0 0 1-1.069962-0.279121 1.767763 1.767763 0 0 1-0.651281-0.511721 3.489006 3.489006 0 0 1-0.372161-0.837361l-4.884608-12.467381a38.890787 38.890787 0 0 0-1.767763-3.907687 11.76958 11.76958 0 0 0-2.186444-3.070325 8.606215 8.606215 0 0 0-2.977285-2.000364 10.280938 10.280938 0 0 0-4.140287-0.744321H432.636744v22.562239a1.302562 1.302562 0 0 1 0 0.604761 1.488643 1.488643 0 0 1-0.604761 0.37216 4.140287 4.140287 0 0 1-1.069962 0 8.792295 8.792295 0 0 1-1.674723 0 9.304016 9.304016 0 0 1-1.721243 0h-1.069962a1.069962 1.069962 0 0 1-0.558241-0.37216 0.930402 0.930402 0 0 1 0-0.604761v-49.032165a2.605124 2.605124 0 0 1 0.837362-2.232964 2.977285 2.977285 0 0 1 1.767763-0.651281H443.150282l2.419044 0.232601a21.027076 21.027076 0 0 1 5.396329 1.674723 13.490823 13.490823 0 0 1 3.954207 2.930765 12.141741 12.141741 0 0 1 2.419044 4.000727 15.816827 15.816827 0 0 1 0.790841 5.024168 15.258586 15.258586 0 0 1-0.697801 4.652008 12.653462 12.653462 0 0 1-2.093403 3.721607 13.351263 13.351263 0 0 1-3.209886 2.791204 19.724514 19.724514 0 0 1-4.233327 2.000364 10.234418 10.234418 0 0 1 2.372524 1.488642 12.374341 12.374341 0 0 1 2.000363 2.093404 22.887879 22.887879 0 0 1 1.721243 2.837725 32.564056 32.564056 0 0 1 1.628203 3.582046l4.652008 11.67654a15.072506 15.072506 0 0 1 0.744321 2.046884 3.163365 3.163365 0 0 1-0.13956 1.163002z m-10.606578-37.216064a9.304016 9.304016 0 0 0-1.395603-5.256769 7.768853 7.768853 0 0 0-4.652007-3.070326 10.467018 10.467018 0 0 0-2.279484-0.41868 33.401417 33.401417 0 0 0-3.395966 0H432.636744V902.489551h6.884971a14.979466 14.979466 0 0 0 4.652008-0.697801 8.978375 8.978375 0 0 0 3.349446-1.860803 7.024532 7.024532 0 0 0 2.000364-2.837725 10.001817 10.001817 0 0 0 0.744321-3.628566zM519.489733 928.866436a5.303289 5.303289 0 0 1 0 1.256043 2.419044 2.419044 0 0 1-0.279121 0.930401 1.860803 1.860803 0 0 1-0.4652 0.558241 1.302562 1.302562 0 0 1-0.604761 0h-25.493004a3.023805 3.023805 0 0 1-1.814283-0.604761 2.744685 2.744685 0 0 1-0.837362-2.232964v-47.124841a2.605124 2.605124 0 0 1 0.837362-2.232964 3.116845 3.116845 0 0 1 1.814283-0.651281h25.120843a1.116482 1.116482 0 0 1 1.023442 0.697802 2.419044 2.419044 0 0 1 0.27912 0.930401 10.839179 10.839179 0 0 1 0 1.349082 10.048337 10.048337 0 0 1 0 1.302563 2.186444 2.186444 0 0 1-0.27912 0.883881 1.116482 1.116482 0 0 1-1.023442 0.697801h-20.701436v16.607669h17.770671a1.302562 1.302562 0 0 1 0.604761 0 2.232964 2.232964 0 0 1 0.418681 0.511721 2.186444 2.186444 0 0 1 0.27912 0.930401 10.839179 10.839179 0 0 1 0 1.349083 9.908777 9.908777 0 0 1 0 1.256042 2.186444 2.186444 0 0 1-0.27912 0.883881 1.349082 1.349082 0 0 1-0.418681 0.465201 1.302562 1.302562 0 0 1-0.604761 0h-17.770671V925.749591h20.980556a0.930402 0.930402 0 0 1 0.604761 0 1.256042 1.256042 0 0 1 0.465201 0.511721 2.186444 2.186444 0 0 1 0.279121 0.883882 6.140651 6.140651 0 0 1 0.09304 1.721242zM571.033981 928.866436a3.395966 3.395966 0 0 1-0.27912 1.395603 2.791205 2.791205 0 0 1-1.721243 1.442122 3.116845 3.116845 0 0 1-1.116482 0h-2.326004a7.350173 7.350173 0 0 1-1.907323 0 4.000727 4.000727 0 0 1-1.581683-0.837361 8.234054 8.234054 0 0 1-1.488642-1.581683 20.980556 20.980556 0 0 1-1.581683-2.651644l-16.142468-30.145012c-0.837361-1.535163-1.721243-3.163365-2.558604-4.652008s-1.674723-3.349446-2.419044-4.977649v44.101036a1.069962 1.069962 0 0 1-0.744322 0.976922h-1.069962a15.956387 15.956387 0 0 1-3.442485 0h-1.069962a1.256042 1.256042 0 0 1-0.558241-0.418681 1.256042 1.256042 0 0 1 0-0.558241v-49.171724a2.651645 2.651645 0 0 1 0.930401-2.326004 3.256406 3.256406 0 0 1 2.000364-0.697802h3.489006a8.559695 8.559695 0 0 1 2.046883 0 3.582046 3.582046 0 0 1 1.488643 0.651281 6.745412 6.745412 0 0 1 1.256042 1.302563 16.049428 16.049428 0 0 1 1.302562 2.139923l12.420862 23.26004 2.186443 4.140288c0.744321 1.349082 1.395602 2.698165 2.093404 4.000726l1.953843 3.861167c0.651281 1.256042 1.256042 2.558604 1.907324 3.814647v-6.745412V879.741232a0.883882 0.883882 0 0 1 0-0.558241 1.907323 1.907323 0 0 1 0.558241-0.418681 3.256406 3.256406 0 0 1 1.116481-0.27912h3.395966a3.256406 3.256406 0 0 1 1.069962 0.27912l0.558241 0.418681a1.302562 1.302562 0 0 1 0 0.558241zM624.904234 885.974923a12.374341 12.374341 0 0 1 0 1.395602 5.024169 5.024169 0 0 1-0.2326 0.976922 1.256042 1.256042 0 0 1-0.418681 0.558241 0.930402 0.930402 0 0 1-0.511721 0 4.093767 4.093767 0 0 1-1.674723-0.790842 26.935126 26.935126 0 0 0-3.070325-1.721243 33.540978 33.540978 0 0 0-4.652008-1.721242 23.26004 23.26004 0 0 0-6.326731-0.744322 18.608032 18.608032 0 0 0-7.861893 1.581683 17.026349 17.026349 0 0 0-5.908051 4.652008 20.422315 20.422315 0 0 0-3.721606 6.698891 27.586407 27.586407 0 0 0-1.302562 8.466655 26.516446 26.516446 0 0 0 1.442122 8.978375 18.608032 18.608032 0 0 0 3.907687 6.652372 16.049428 16.049428 0 0 0 5.95457 4.093767 20.003634 20.003634 0 0 0 7.582773 1.395602 20.515355 20.515355 0 0 0 4.977649-0.604761 17.817191 17.817191 0 0 0 4.652008-1.767763v-15.537706h-12.281301a1.163002 1.163002 0 0 1-1.069962-0.697802 5.117209 5.117209 0 0 1-0.325641-2.186443 10.048337 10.048337 0 0 1 0-1.302563 3.861167 3.861167 0 0 1 0-0.930401 1.674723 1.674723 0 0 1 0.465201-0.511721 1.163002 1.163002 0 0 1 0.604761 0h16.840269a2.930765 2.930765 0 0 1 0.883882 0 4.047247 4.047247 0 0 1 0.837361 0.511721 2.419044 2.419044 0 0 1 0.558241 0.883881 4.093767 4.093767 0 0 1 0 1.349083V925.749591a3.721606 3.721606 0 0 1-0.372161 1.814283 3.256406 3.256406 0 0 1-1.535162 1.395603q-1.163002 0.558241-3.070326 1.256042a34.70398 34.70398 0 0 1-3.907686 1.209522 36.657823 36.657823 0 0 1-4.047247 0.744321 39.355988 39.355988 0 0 1-4.047247 0 30.005452 30.005452 0 0 1-10.978739-1.907323 21.631837 21.631837 0 0 1-8.141014-5.442849 23.26004 23.26004 0 0 1-5.117209-8.420135 34.9831 34.9831 0 0 1 0-22.376158 25.167363 25.167363 0 0 1 5.349809-8.745775 23.26004 23.26004 0 0 1 8.327095-5.58241 28.702889 28.702889 0 0 1 10.746138-2.000363 27.632927 27.632927 0 0 1 5.67545 0.55824 27.912048 27.912048 0 0 1 4.652008 1.256043 17.72415 17.72415 0 0 1 3.489006 1.535162 10.792659 10.792659 0 0 1 1.953843 1.395603 2.930765 2.930765 0 0 1 0.744321 1.209522 10.048337 10.048337 0 0 1 0.930402 2.326004zM645.047429 930.68072a1.302562 1.302562 0 0 1 0 0.604761 1.488643 1.488643 0 0 1-0.604761 0.37216 4.652008 4.652008 0 0 1-1.069962 0 9.304016 9.304016 0 0 1-1.721243 0 9.024896 9.024896 0 0 1-1.674723 0 5.163729 5.163729 0 0 1-1.116482 0 1.674723 1.674723 0 0 1-0.558241-0.37216 1.302562 1.302562 0 0 1 0-0.604761v-50.846448a0.744321 0.744321 0 0 1 0-0.558241 1.023442 1.023442 0 0 1 0.604761-0.41868H644.396148a1.163002 1.163002 0 0 1 0.604761 0.41868 0.976922 0.976922 0 0 1 0 0.558241zM699.196802 928.866436a3.395966 3.395966 0 0 1-0.279121 1.395603 2.791205 2.791205 0 0 1-1.721243 1.442122 3.116845 3.116845 0 0 1-1.116482 0h-2.326004a7.629293 7.629293 0 0 1-1.907323 0 4.000727 4.000727 0 0 1-1.581683-0.837361 8.234054 8.234054 0 0 1-1.488642-1.581683 28.470289 28.470289 0 0 1-1.581683-2.651644l-16.142468-30.145012c-0.837361-1.535163-1.721243-3.163365-2.558604-4.652008s-1.674723-3.349446-2.419044-4.977649v44.101036a1.256042 1.256042 0 0 1 0 0.558241 1.163002 1.163002 0 0 1-0.604761 0.418681h-1.069962a15.956387 15.956387 0 0 1-3.442486 0 4.186807 4.186807 0 0 1-1.023442 0 1.069962 1.069962 0 0 1-0.744321-0.976922v-49.171724a2.791205 2.791205 0 0 1 0.930402-2.326004 3.256406 3.256406 0 0 1 2.000363-0.697802h3.489006a8.559695 8.559695 0 0 1 2.046884 0 3.582046 3.582046 0 0 1 1.488642 0.651281 6.745412 6.745412 0 0 1 1.256042 1.302563 16.049428 16.049428 0 0 1 1.302562 2.139923l12.420862 23.26004 2.186444 4.140288c0.744321 1.349082 1.442122 2.698165 2.093403 4.000726l1.953844 3.861167c0.651281 1.256042 1.256042 2.558604 1.907323 3.814647v-6.745412V879.741232a1.302562 1.302562 0 0 1 0-0.558241 2.232964 2.232964 0 0 1 0.883881 0.04652 2.698165 2.698165 0 0 1 1.069962-0.27912h3.395966a2.977285 2.977285 0 0 1 1.069962 0.27912 1.907323 1.907323 0 0 1 0.558241 0.418681 1.302562 1.302562 0 0 1 0 0.558241zM742.739597 928.866436a10.513538 10.513538 0 0 1 0 1.256043 3.582046 3.582046 0 0 1-0.325641 0.930401 1.860803 1.860803 0 0 1-0.465201 0.558241 1.302562 1.302562 0 0 1-0.604761 0h-25.399963a2.791205 2.791205 0 0 1-1.767764-0.604761 2.744685 2.744685 0 0 1-0.837361-2.232964v-47.124841a2.605124 2.605124 0 0 1 0.837361-2.232964 2.884245 2.884245 0 0 1 1.767764-0.651281h25.120843a1.116482 1.116482 0 0 1 1.023441 0.697802 2.419044 2.419044 0 0 1 0.279121 0.930401 5.95457 5.95457 0 0 1 0 1.349082 5.53589 5.53589 0 0 1 0 1.302563 2.186444 2.186444 0 0 1-0.279121 0.883881 1.116482 1.116482 0 0 1-1.023441 0.697801h-20.701436v16.607669h17.770671a1.302562 1.302562 0 0 1 0.604761 0 1.442122 1.442122 0 0 1 0.41868 0.511721 2.186444 2.186444 0 0 1 0.279121 0.930401 10.839179 10.839179 0 0 1 0 1.349083 9.908777 9.908777 0 0 1 0 1.256042 2.186444 2.186444 0 0 1-0.279121 0.883881 1.023442 1.023442 0 0 1-0.41868 0.465201 1.302562 1.302562 0 0 1-0.604761 0h-17.770671V925.749591h20.980556a0.930402 0.930402 0 0 1 0.604761 0 1.256042 1.256042 0 0 1 0.465201 0.511721 3.209886 3.209886 0 0 1 0.325641 0.883882 12.234781 12.234781 0 0 1 0 1.721242zM783.723787 928.866436a9.908777 9.908777 0 0 1 0 1.256043 2.419044 2.419044 0 0 1-0.27912 0.930401 2.000363 2.000363 0 0 1-0.511721 0.558241 1.116482 1.116482 0 0 1-0.558241 0h-25.446484a2.884245 2.884245 0 0 1-1.767763-0.604761 2.744685 2.744685 0 0 1-0.837362-2.232964v-47.124841a2.605124 2.605124 0 0 1 0.837362-2.232964 2.977285 2.977285 0 0 1 1.767763-0.651281h25.167363a0.790841 0.790841 0 0 1 0.558241 0 1.256042 1.256042 0 0 1 0.465201 0.511721 3.861167 3.861167 0 0 1 0.2326 0.930402 5.95457 5.95457 0 0 1 0 1.349082 5.53589 5.53589 0 0 1 0 1.302562 3.442486 3.442486 0 0 1-0.2326 0.883882 1.256042 1.256042 0 0 1-0.465201 0.511721 0.790841 0.790841 0 0 1-0.558241 0h-20.747955v16.607668h17.77067a1.302562 1.302562 0 0 1 0.604761 0 2.419044 2.419044 0 0 1 0.465201 0.511721 3.349446 3.349446 0 0 1 0.2326 0.930402 5.95457 5.95457 0 0 1 0 1.349082 5.303289 5.303289 0 0 1 0 1.256042 3.442486 3.442486 0 0 1-0.2326 0.883882 1.488643 1.488643 0 0 1-0.465201 0.465201 1.302562 1.302562 0 0 1-0.604761 0h-17.77067V925.749591h21.027076a0.790841 0.790841 0 0 1 0.558241 0 1.349082 1.349082 0 0 1 0.511721 0.511721 2.186444 2.186444 0 0 1 0.27912 0.883882 10.978739 10.978739 0 0 1 0 1.721242zM830.522987 930.68072a1.302562 1.302562 0 0 1 0 0.604761 1.116482 1.116482 0 0 1-0.51172 0.37216 3.535526 3.535526 0 0 1-1.163002 0.279121h-3.721607a3.256406 3.256406 0 0 1-1.069962-0.279121 1.767763 1.767763 0 0 1-0.651281-0.511721 3.489006 3.489006 0 0 1-0.37216-0.837361l-4.652008-12.467381a38.890787 38.890787 0 0 0-1.767763-3.907687 11.76958 11.76958 0 0 0-2.186444-3.070325 8.606215 8.606215 0 0 0-2.977285-2.000364 10.280938 10.280938 0 0 0-4.140287-0.744321h-4.652008v22.562239a0.930402 0.930402 0 0 1 0 0.604761 1.069962 1.069962 0 0 1-0.558241 0.37216 4.140287 4.140287 0 0 1-1.069962 0 8.792295 8.792295 0 0 1-1.674723 0 9.304016 9.304016 0 0 1-1.721243 0 4.652008 4.652008 0 0 1-1.069962 0 1.069962 1.069962 0 0 1-0.558241-0.37216 0.930402 0.930402 0 0 1 0-0.604761v-49.032165a2.605124 2.605124 0 0 1 0.837362-2.232964 2.977285 2.977285 0 0 1 1.767763-0.651281H813.217518l2.419044 0.232601a21.027076 21.027076 0 0 1 5.396329 1.674723 13.490823 13.490823 0 0 1 3.954207 2.930765 12.141741 12.141741 0 0 1 2.419044 4.000727 15.816827 15.816827 0 0 1 0.790841 5.024168 13.956024 13.956024 0 0 1-0.744321 4.652008 11.5835 11.5835 0 0 1-2.046883 3.721607 13.583863 13.583863 0 0 1-3.256406 2.791204 19.352353 19.352353 0 0 1-4.186807 2.000364 10.234418 10.234418 0 0 1 2.372524 1.488642 12.374341 12.374341 0 0 1 2.000363 2.093404 22.887879 22.887879 0 0 1 1.721243 2.837725c0.558241 1.069962 1.069962 2.232964 1.628203 3.582046l4.652008 11.67654a15.072506 15.072506 0 0 1 0.744321 2.046884 6.326731 6.326731 0 0 1-0.558241 1.163002z m-10.606578-37.216064a9.304016 9.304016 0 0 0-1.395602-5.256769 7.768853 7.768853 0 0 0-4.652008-3.070326 10.467018 10.467018 0 0 0-2.279484-0.41868 33.401417 33.401417 0 0 0-3.395966 0h-5.95457V902.489551h6.884972a14.979466 14.979466 0 0 0 4.652008-0.697801 8.978375 8.978375 0 0 0 3.349445-1.860803 7.024532 7.024532 0 0 0 2.000364-2.837725 10.001817 10.001817 0 0 0 0.790841-3.628566zM847.735417 930.68072a1.302562 1.302562 0 0 1 0 0.604761 1.488643 1.488643 0 0 1-0.604761 0.37216 4.140287 4.140287 0 0 1-1.069962 0 9.024896 9.024896 0 0 1-1.674723 0 9.304016 9.304016 0 0 1-1.721243 0 4.652008 4.652008 0 0 1-1.069962 0 1.488643 1.488643 0 0 1-0.604761-0.37216 1.302562 1.302562 0 0 1 0-0.604761v-50.846448a0.744321 0.744321 0 0 1 0-0.558241 1.023442 1.023442 0 0 1 0.604761-0.41868h5.48937a1.163002 1.163002 0 0 1 0.604761 0.41868 0.976922 0.976922 0 0 1 0 0.558241zM901.88479 928.866436a3.395966 3.395966 0 0 1-0.27912 1.395603 2.884245 2.884245 0 0 1-0.697802 0.930401 3.023805 3.023805 0 0 1-1.023441 0.511721 3.116845 3.116845 0 0 1-1.116482 0h-2.326004a7.908414 7.908414 0 0 1-1.907324 0 4.000727 4.000727 0 0 1-1.581682-0.837361 9.955297 9.955297 0 0 1-1.488643-1.581683 29.30765 29.30765 0 0 1-1.535162-2.651644l-16.188988-30.145012c-0.837361-1.535163-1.674723-3.163365-2.558605-4.652008s-1.628203-3.349446-2.372524-4.977649v44.101036a1.256042 1.256042 0 0 1 0 0.558241 1.163002 1.163002 0 0 1-0.604761 0.418681 4.652008 4.652008 0 0 1-1.069962 0 9.304016 9.304016 0 0 1-1.721243 0 8.559695 8.559695 0 0 1-1.674722 0 4.140287 4.140287 0 0 1-1.069962 0 1.069962 1.069962 0 0 1-0.744322-0.976922v-49.171724a2.791205 2.791205 0 0 1 0.930402-2.326004 3.302926 3.302926 0 0 1 2.046884-0.697802h3.442485a8.280574 8.280574 0 0 1 2.046884 0 3.302926 3.302926 0 0 1 1.488643 0.651281 6.745412 6.745412 0 0 1 1.256042 1.302563 16.049428 16.049428 0 0 1 1.302562 2.139923l12.420861 23.26004 2.232964 4.140288 2.046884 4.000726 1.953843 3.861167 1.907323 3.814647v-42.193713a1.256042 1.256042 0 0 1 0-0.558241 2.232964 2.232964 0 0 1 0.604761-0.418681 2.977285 2.977285 0 0 1 1.069962-0.27912h3.395966a2.698165 2.698165 0 0 1 1.069962 0.27912 1.442122 1.442122 0 0 1 0.558241 0.418681 0.883882 0.883882 0 0 1 0 0.558241zM955.755043 885.974923a13.072142 13.072142 0 0 1 0 1.395602 4.884608 4.884608 0 0 1-0.279121 0.976922 1.256042 1.256042 0 0 1-0.41868 0.558241 0.930402 0.930402 0 0 1-0.511721 0 3.768126 3.768126 0 0 1-1.628203-0.790842c-0.790841-0.511721-1.814283-1.069962-3.070325-1.721243a38.890787 38.890787 0 0 0-4.652008-1.721242 23.49264 23.49264 0 0 0-6.373251-0.744322 18.608032 18.608032 0 0 0-7.861894 1.581683 17.44503 17.44503 0 0 0-5.90805 4.652008 21.306197 21.306197 0 0 0-3.721606 6.698891 27.586407 27.586407 0 0 0-1.256043 8.466655 26.562966 26.562966 0 0 0 1.395603 8.978375 18.608032 18.608032 0 0 0 3.907686 6.652372 16.468108 16.468108 0 0 0 5.954571 4.093767 21.073596 21.073596 0 0 0 12.560421 0.790841 17.21243 17.21243 0 0 0 4.652008-1.767763v-15.537706h-12.281301a1.069962 1.069962 0 0 1-1.023442-0.697802 4.977649 4.977649 0 0 1-0.37216-2.186443 10.048337 10.048337 0 0 1 0-1.302563 2.419044 2.419044 0 0 1 0.27912-0.930401 1.116482 1.116482 0 0 1 0.418681-0.511721 1.302562 1.302562 0 0 1 0.604761 0h16.840269a2.930765 2.930765 0 0 1 0.883882 0 2.512084 2.512084 0 0 1 0.837361 0.511721 2.419044 2.419044 0 0 1 0.558241 0.883881 4.093767 4.093767 0 0 1 0.2326 1.349083V925.749591a4.326367 4.326367 0 0 1-0.37216 1.814283 3.675086 3.675086 0 0 1-1.581683 1.395603q-1.163002 0.558241-3.070325 1.256042a37.216064 37.216064 0 0 1-3.861167 1.209522 41.170271 41.170271 0 0 1-4.047247 0.744321h-4.093767a30.191532 30.191532 0 0 1-10.978739-1.907323 22.003998 22.003998 0 0 1-8.141014-5.442849 23.678721 23.678721 0 0 1-5.117209-8.420135 34.9831 34.9831 0 0 1 0-22.376158 25.260403 25.260403 0 0 1 5.39633-8.745775 23.26004 23.26004 0 0 1 8.280574-5.58241 28.702889 28.702889 0 0 1 10.746138-2.000363 27.912048 27.912048 0 0 1 5.72197 0.55824 27.353807 27.353807 0 0 1 4.652008 1.256043 17.72415 17.72415 0 0 1 3.489006 1.535162 10.792659 10.792659 0 0 1 1.953844 1.395603 2.512084 2.512084 0 0 1 0.744321 1.209522 7.443213 7.443213 0 0 1 0.511721 2.326004z" fill="#363636" /></svg>