<svg class="svg-icon" style="width: 1.056640625em;height: 1em;vertical-align: middle;fill: currentColor;overflow: hidden;" viewBox="0 0 1082 1024" version="1.1" xmlns="http://www.w3.org/2000/svg"><path d="M196.398304 516.064208a98.332076 98.332076 0 0 0-98.609458-94.032648 21.358448 21.358448 0 0 0 0 42.578205 55.476488 55.476488 0 1 1 0 110.952976 21.358448 21.358448 0 0 0 0 42.716896 99.025532 99.025532 0 0 0 91.120132-60.053298c62.549741 8.044091 97.083855-6.79587 130.785822-50.483605a21.081066 21.081066 0 0 0-3.744663-29.957303 21.358448 21.358448 0 0 0-29.957304 3.744663 80.163526 80.163526 0 0 1-89.594529 34.811496z m209.285052 174.057482a134.530484 134.530484 0 0 0-201.657035 16.781637 136.472161 136.472161 0 0 0-25.241802 105.682711 20.664992 20.664992 0 0 0 9.01493 13.869122 20.803683 20.803683 0 0 0 16.226872 3.051207 22.329287 22.329287 0 0 0 13.869123-9.01493 21.497139 21.497139 0 0 0 3.189898-15.533417 93.893956 93.893956 0 0 1 147.844841-91.536205 91.952279 91.952279 0 0 1 34.811496 55.476488 20.664992 20.664992 0 0 0 25.103111 16.365564 21.497139 21.497139 0 0 0 16.504256-25.103111 154.085946 154.085946 0 0 0-6.79587-24.548346 26.767406 26.767406 0 0 0 0-4.715501 41.607366 41.607366 0 0 1 40.497836-41.607367 21.63583 21.63583 0 1 0 0-43.271661 84.740336 84.740336 0 0 0-73.645038 44.381191z m103.602342-166.429465h42.439514v120.522671H761.426338l66.849168 94.31003h48.125854a84.601645 84.601645 0 1 1 3.605972 42.716896h-73.090274l-69.34561-95.142178h-185.846236v116.223243h134.807867l53.534811 67.403934a84.04688 84.04688 0 1 1-26.767406 29.402538L665.729395 845.317166h-113.726801v17.891167a166.429465 166.429465 0 0 1-170.312819 160.743125 173.641408 173.641408 0 0 1-161.29789-109.704756C132.877725 922.845558 52.991582 852.113036 41.618902 750.868444a230.227427 230.227427 0 0 1 4.299428-69.34561A266.009761 266.009761 0 0 1 0.011536 529.655947c0-91.813588 47.155015-171.699731 108.456534-201.657035a76.002789 76.002789 0 0 1-2.496442-23.716199c0-98.609458 69.34561-179.46644 154.779403-182.101573A146.041855 146.041855 0 0 1 403.464297 15.3889a151.312122 151.312122 0 0 1 147.012694 126.07032h60.746755l42.855587-45.49072a84.324262 84.324262 0 1 1 13.036975 48.264545l-36.753174 39.80438h-78.637922v140.632898h134.669175L773.353783 208.585771h87.791543v4.022045a84.04688 84.04688 0 1 1-3.883355 34.534114h-62.965814L707.336762 363.226482H551.725212v118.303612h-42.439514V388.884358h-41.607366v93.339192h-94.032648v41.607366h93.339192v93.339191h41.607366z m42.439514-41.607367h38.833542v41.607367h-38.833542zM299.584573 296.932079a176.553924 176.553924 0 0 0 129.121526 55.476488 21.219757 21.219757 0 0 0 20.942374-21.219757 22.74536 22.74536 0 0 0-21.774521-20.387609c-73.645038-10.401842-134.114411-61.856284-134.114411-136.888235a21.081066 21.081066 0 0 0-41.607366 0 180.298587 180.298587 0 0 0 20.248918 83.214732 110.952977 110.952977 0 0 0-87.51416 108.456535 21.081066 21.081066 0 0 0 41.607366 0 67.265242 67.265242 0 0 1 67.265242-68.097389 20.664992 20.664992 0 0 0 7.073253-0.832148z m600.255603 226.898837h-32.731128l-29.957304 40.359145a23.161434 23.161434 0 0 1-19.139388 9.847077h-1.525604a22.884051 22.884051 0 0 1-19.139388-12.066136l-38.417468-73.367656-15.394726 22.190595a27.738244 27.738244 0 0 1-19.416771 13.036975H635.217327v-41.607366h75.586715l31.066834-48.958001a23.161434 23.161434 0 0 1 20.942374-10.263151 22.884051 22.884051 0 0 1 19.139388 12.204828l38.278777 73.367656 13.869122-17.475094a25.241802 25.241802 0 0 1 19.971536-9.292312h48.81931a84.185571 84.185571 0 1 1-2.496442 41.607366z m-9.985768-286.813445a65.323565 65.323565 0 1 1 1.248221 0z m17.891168 516.347415a50.483604 50.483604 0 1 0 50.344913-50.483604 50.344913 50.344913 0 0 0-50.344913 50.483604z m25.241802-246.176917a50.483604 50.483604 0 1 0 50.344913-50.344913 50.344913 50.344913 0 0 0-50.344913 50.344913zM736.323227 939.488505a50.483604 50.483604 0 1 0 50.344913-50.483605 50.344913 50.344913 0 0 0-50.344913 50.483605zM685.839622 99.574471a49.790148 49.790148 0 1 1 1.525604 0z m-327.727354 4.022046a127.179849 127.179849 0 0 0 118.719685 81.134364 21.219757 21.219757 0 1 0 0-41.607366 85.15641 85.15641 0 0 1-79.192687-54.228268 21.219757 21.219757 0 1 0-39.526998 15.394726z m126.070319 708.434756a136.749544 136.749544 0 0 0-136.194778 136.194779 21.497139 21.497139 0 1 0 42.855587 0A94.032648 94.032648 0 0 1 485.430808 854.470786a21.358448 21.358448 0 0 0 0-42.578205z" fill="#444444" /></svg>