<svg class="svg-icon" style="width: 1em; height: 1em;vertical-align: middle;fill: currentColor;overflow: hidden;" viewBox="0 0 1024 1024" version="1.1" xmlns="http://www.w3.org/2000/svg"><path d="M353.6 385.6c32 0 57.6-25.6 57.6-57.6s-25.6-57.6-57.6-57.6-57.6 25.6-57.6 57.6 25.6 57.6 57.6 57.6z m41.6-57.6c0 22.4-19.2 41.6-41.6 41.6s-41.6-19.2-41.6-41.6 19.2-41.6 41.6-41.6 41.6 17.6 41.6 41.6zM670.4 385.6c32 0 57.6-25.6 57.6-57.6s-25.6-57.6-57.6-57.6-57.6 25.6-57.6 57.6 25.6 57.6 57.6 57.6z m0-100.8c22.4 0 41.6 19.2 41.6 41.6S692.8 368 670.4 368s-41.6-19.2-41.6-41.6 19.2-41.6 41.6-41.6z" fill="#707070" /><path d="M222.4 833.6h110.4c20.8 0 38.4-12.8 44.8-32h268.8c6.4 19.2 24 32 44.8 32h110.4c25.6 0 48-20.8 48-48V540.8c0-25.6-20.8-48-48-48h-110.4c-20.8 0-38.4 12.8-44.8 32h-126.4V464h148.8c75.2 0 137.6-62.4 137.6-137.6s-62.4-137.6-137.6-137.6H355.2c-75.2 0-137.6 62.4-137.6 137.6s62.4 137.6 137.6 137.6h148.8v60.8h-126.4c-6.4-19.2-24-32-44.8-32h-110.4c-25.6 0-48 20.8-48 48v244.8c1.6 27.2 22.4 48 48 48z m158.4-291.2h264v244.8H380.8V542.4zM816 676.8v72h-140.8v-72H816z m0-16h-140.8v-81.6H816v81.6z m-608 16h140.8v72H208v-72z m140.8-16H208v-81.6h140.8v81.6z m-16 140.8h-110.4c-8 0-16-6.4-16-16v-22.4h140.8v22.4c1.6 9.6-6.4 16-14.4 16z m30.4-8z m297.6 0z m140.8 8h-110.4c-8 0-16-6.4-16-16v-22.4H816v22.4c0 9.6-6.4 16-14.4 16z m-110.4-275.2h110.4c8 0 16 6.4 16 16v20.8h-140.8v-20.8c-1.6-9.6 6.4-16 14.4-16z m-336-304h313.6c57.6 0 105.6 48 105.6 105.6 0 57.6-48 105.6-105.6 105.6H355.2c-57.6 0-105.6-48-105.6-105.6 0-59.2 48-105.6 105.6-105.6z m-132.8 304h110.4c8 0 16 6.4 16 16v20.8H208v-20.8c0-9.6 6.4-16 14.4-16z" fill="#707070" /></svg>