<svg class="svg-icon" style="width: 1em; height: 1em;vertical-align: middle;fill: currentColor;overflow: hidden;" viewBox="0 0 1024 1024" version="1.1" xmlns="http://www.w3.org/2000/svg"><path d="M215.434096 1019.510756l133.947711 0c-21.285792-32.864502-30.623461-60.500932-43.259246-105.936751L215.434096 1019.510756z"  /><path d="M767.287779 732.381269 539.848767 986.707652 563.002093 1019.510756 728.883097 1019.510756 1023.979022 1019.510756Z"  /><path d="M553.293987 637.147278 446.356442 765.682723c14.130835 76.121701 15.065114 113.842815 53.779857 176.209234l0.37453-0.433882 156.355047-183.931103L553.293987 637.147278z"  /><path d="M474.618113 994.862379c-4.107551-7.344269-8.090259-14.813381-12.013615-22.344914-0.188288-0.496304-0.436952-0.871857-0.684592-1.369184-12.574387-24.6494-23.775496-50.417273-33.986045-76.746942-0.62217-1.680269-1.242294-3.362584-1.867534-5.039783-2.614547-6.971785-5.16565-13.882172-7.594979-20.853957-0.86981-2.550079-1.738597-5.040806-2.613524-7.529487-2.114151-6.163373-4.169973-12.325723-6.161327-18.488073-0.931209-2.988054-1.926886-6.036483-2.800789-9.024537-1.804089-5.727445-3.609201-11.326976-5.228071-17.056468-46.434565-156.601664-56.267515-244.493433-50.41932-269.761933 0.436952-1.619894 0.49835-3.735068 0.436952-5.976108 23.219841-2.551102 57.823963-2.489704 98.40931 3.735068 58.632375 8.900717 130.463354 49.9179 137.932466 35.354206 3.919263-7.469112-54.649668-72.015174-102.20373-92.308359 60.999282-9.461489 114.400516-4.232394 147.143245-3.485381 18.798135 0.436952 37.532825 2.428306 40.332591-0.310062 5.854335-5.665023-29.999245-27.13808-55.083549-35.231409-17.86488-5.78782-57.827033-21.411659-119.447463-7.217379-57.015551 13.132088-108.802008 43.2572-137.371694 62.179155 0.309038-0.808412 0.561795-1.429559 0.934279-2.240017 34.668591-91.807962 121.747855-122.05894 161.334455-142.352125 14.56574-7.404644 30.436196-13.193487 30.312376-17.053398-0.373507-8.090259-45.686529-14.192234-71.514777-11.641131-18.36323 1.805112-61.746296 3.176342-96.356558 42.887786-14.686491 16.866133-25.51921 36.72339-33.486672 56.329936-2.737344-37.407981-10.333346-82.038458-30.250978-116.955712-32.9259-57.638745-95.480608-57.141418-105.190761-56.5786-9.710153 0.559748-7.592932 23.464411 2.676969 53.340859 10.269901 29.937846 29.690206 55.521524 53.341882 97.724719 7.717775 13.629415 18.298761 31.68156 29.006637 49.9179-18.178011-21.036106-42.264593-43.321668-71.021543-56.888661-47.865147-22.594601-88.075964-6.599302-105.689111-0.934279-24.647353 7.906064-63.676252 31.494295-60.688197 39.024805 1.37123 3.548826 18.301831 2.615571 34.608216 3.610224 44.566008 2.800789 136.499837-4.109598 205.526957 66.288752 0.995677 0.934279 1.74576 1.682315 2.615571 2.555196-32.991392-12.07706-86.769202-28.011984-141.66651-28.322046-63.240323-0.375553-98.717326 23.587208-114.903983 33.048697-22.653953 13.382798-52.782134 42.202171-45.811372 46.435589 3.362584 2.053776 21.166065-3.984754 39.337937-8.527211 49.173956-12.137435 143.660934-45.623084 252.711606-20.48045-32.741705 6.725168-76.06235 25.022906-101.209076 73.760934-22.779819 44.378743-7.780197 149.134599 1.36816 151.188374 16.060791 3.546779 29.940916-77.368088 60.315714-127.72294 22.097274-36.722366 45.249577-64.110133 62.306045-79.922261-7.717775 152.622026 8.464789 215.238133 31.994692 316.819692l0 0.064468c8.837272 37.718043 18.546402 71.705112 28.568662 101.954043 0.185218 0.435928 0.312108 0.934279 0.434905 1.370207 1.86958 5.478781 3.672646 10.829649 5.477758 16.119119 0.248663 0.49835 0.37453 1.059122 0.621147 1.619894 1.868557 5.228071 12.824073 31.68156 12.824073 31.68156l91.000574 0c0 0-9.958816-13.754259-13.444197-19.857257C476.48667 998.037698 475.552391 996.48125 474.618113 994.862379zM375.649054 511.663332c2.615571-0.995677 66.724681-23.028483 111.914906 4.170996 2.428306 1.494027 3.236718 4.669346 1.74269 7.036253-0.995677 1.616824-2.675946 2.489704-4.481058 2.489704-0.86981 0-1.804089-0.25071-2.614547-0.74906-41.078581-24.709775-102.514815-3.485381-103.075587-3.299139-2.736321 0.935302-5.723352-0.432859-6.65763-3.109828C371.542526 515.524267 372.91171 512.598634 375.649054 511.663332zM275.996426 566.314023c-0.559748 0.312108-50.354851 36.600593-60.063981 85.273129-0.49835 2.366907-2.615571 4.109598-5.105275 4.109598-0.245593 0-0.621147 0-0.995677-0.124843-2.799766-0.49835-4.604878-3.234671-4.106528-5.975085 10.579963-52.720735 61.994959-90.065272 64.236-91.622744 2.240017-1.617847 5.476735-1.119497 7.219425 1.121544C278.800285 561.459458 278.301935 564.633754 275.996426 566.314023zM326.415746 472.762347l-0.249687 0c-2.803859 0-5.04183-2.176572-5.167696-4.91801-4.605901-94.982258-71.079872-170.919764-71.704089-171.728176-1.866511-2.117221-1.743714-5.353938 0.435928-7.220449 2.179642-1.868557 5.41329-1.681292 7.281847 0.497327 2.864234 3.173273 69.464071 79.423911 74.317613 177.952948C331.456552 470.211245 329.277934 472.577129 326.415746 472.762347z"  /></svg>